<svg width="1440" height="838" viewBox="0 0 1440 838" fill="none" xmlns="http://www.w3.org/2000/svg">
<g opacity="0.6">
<path d="M-796.745 -110.857C-316.737 -0.480854 -35.5406 200.816 135.8 374.786C278.633 519.828 287.154 587.063 430.643 689.428C742.025 911.555 1287.1 1012.42 1501.23 745.247C1606.7 613.637 1538.62 478.802 1554.98 200.55C1569.7 -49.7569 1654.11 -404.179 1979.62 -826.382" stroke="#96989A" stroke-opacity="0.24" stroke-width="1.5" stroke-miterlimit="10"/>
<path d="M-786.552 -52.3352C-322.926 34.4331 -46.4113 221.908 122.864 383.308C265.3 519.157 284.678 579.432 435.555 678.478C752.062 886.254 1264.54 984.649 1481.43 732.653C1593.15 602.862 1541.68 467.887 1568.28 188.821C1591.71 -56.866 1679.82 -406.042 1999.24 -823.958" stroke="#96989A" stroke-opacity="0.24" stroke-width="1.5" stroke-miterlimit="10"/>
<path d="M-776.361 6.17827C-329.123 69.3479 -57.0945 243.028 109.951 391.826C252.258 518.589 281.991 571.842 440.491 667.523C761.559 861.339 1242.82 957.163 1461.67 720.06C1579.89 591.963 1544.57 457.139 1581.62 177.094C1613.51 -63.8771 1705.56 -407.886 2018.93 -821.502" stroke="#96989A" stroke-opacity="0.24" stroke-width="1.5" stroke-miterlimit="10"/>
<path d="M-766.168 64.7005C-335.318 104.271 -67.5326 264.168 97.0467 400.393C239.396 518.152 279.077 564.347 445.459 656.555C770.579 836.832 1221.89 930.016 1441.92 707.457C1566.94 581.017 1547.28 446.538 1594.98 165.355C1635.03 -70.7926 1731.33 -409.734 2038.58 -819.065" stroke="#96989A" stroke-opacity="0.24" stroke-width="1.5" stroke-miterlimit="10"/>
<path d="M-755.974 123.214C-341.474 139.163 -77.6909 285.264 84.1312 408.87C226.768 517.81 276.04 556.947 450.35 645.608C779.069 812.752 1201.64 903.264 1422.11 694.865C1554.2 570.013 1549.69 436.05 1608.27 153.628C1656.24 -77.6423 1757.04 -411.58 2058.19 -816.58" stroke="#96989A" stroke-opacity="0.24" stroke-width="1.5" stroke-miterlimit="10"/>
<path d="M-745.782 181.728C-347.703 174.084 -87.5499 306.321 71.2191 417.389C214.42 517.567 272.724 549.707 455.285 634.646C787.216 789.1 1182.11 876.906 1402.34 682.275C1541.78 559.033 1551.84 425.654 1621.6 141.895C1677.21 -84.4618 1782.77 -413.422 2077.83 -814.183" stroke="#96989A" stroke-opacity="0.24" stroke-width="1.5" stroke-miterlimit="10"/>
<path d="M-735.591 240.242C-353.906 208.958 -97.0642 327.24 58.3067 425.907C202.366 517.393 269.291 542.619 460.213 623.693C795.044 765.866 1163.19 850.984 1382.56 669.678C1529.63 548.127 1553.82 415.285 1634.93 130.17C1697.92 -91.2743 1808.54 -415.27 2097.47 -811.737" stroke="#96989A" stroke-opacity="0.24" stroke-width="1.5" stroke-miterlimit="10"/>
<path d="M-725.366 298.759C-360.066 243.901 -106.17 348.003 45.4264 434.421C190.68 517.227 265.786 535.71 465.173 612.735C802.629 743.045 1144.87 825.491 1362.82 657.075C1517.79 537.331 1555.51 404.945 1648.29 118.432C1718.37 -98.0857 1834.24 -417.083 2117.12 -809.299" stroke="#96989A" stroke-opacity="0.24" stroke-width="1.5" stroke-miterlimit="10"/>
<path d="M-715.207 357.278C-366.295 278.821 -114.945 368.53 32.4836 442.952C179.318 517.044 262.049 529.07 470.077 601.777C809.971 720.629 1127.01 800.46 1343.01 644.49C1506.16 526.708 1556.85 394.576 1661.58 106.703C1738.58 -104.936 1859.98 -418.958 2136.82 -806.869" stroke="#96989A" stroke-opacity="0.24" stroke-width="1.5" stroke-miterlimit="10"/>
<path d="M-705.019 415.767C-372.487 313.711 -123.299 388.715 19.5676 451.446C168.286 516.741 258.26 522.521 475.001 590.8C817.126 698.567 1109.56 775.846 1323.23 631.867C1494.78 516.28 1557.95 384.122 1674.91 94.9454C1758.56 -111.866 1885.72 -420.827 2156.41 -804.449" stroke="#96989A" stroke-opacity="0.24" stroke-width="1.5" stroke-miterlimit="10"/>
<path d="M-694.82 474.313C-378.636 348.643 -131.252 408.57 6.67037 459.986C157.676 516.288 254.423 516.289 479.943 579.861C824.207 676.908 1092.5 751.727 1303.47 619.301C1483.67 506.174 1558.76 373.619 1688.24 83.2357C1778.33 -118.812 1911.46 -422.646 2176.07 -801.972" stroke="#96989A" stroke-opacity="0.24" stroke-width="1.5" stroke-miterlimit="10"/>
<path d="M-684.628 532.827C-384.875 383.556 -138.859 427.945 -6.24183 468.504C147.41 515.506 250.559 510.269 484.871 568.908C831.209 655.562 1075.76 728.01 1283.69 606.703C1472.8 496.382 1559.3 362.97 1701.57 71.5103C1797.91 -125.87 1937.19 -424.497 2195.71 -799.542" stroke="#96989A" stroke-opacity="0.24" stroke-width="1.5" stroke-miterlimit="10"/>
<path d="M-674.436 591.349C-391.072 418.472 -146.18 446.809 -19.1528 477.031C137.46 514.291 246.591 504.49 489.808 557.954C838.177 634.53 1059.24 704.724 1263.92 594.103C1462.12 486.984 1559.58 352.171 1714.9 59.7773C1817.32 -133.026 1962.93 -426.339 2215.36 -797.105" stroke="#96989A" stroke-opacity="0.24" stroke-width="1.5" stroke-miterlimit="10"/>
<path d="M-664.244 649.863C-397.261 453.386 -153.28 465.121 -32.0649 485.549C127.759 512.486 242.644 498.95 494.718 546.995C845.115 613.778 1042.88 681.803 1244.13 581.516C1451.69 478.039 1559.57 341.182 1728.21 48.0463C1836.58 -140.3 1988.66 -428.206 2235.01 -794.642" stroke="#96989A" stroke-opacity="0.24" stroke-width="1.5" stroke-miterlimit="10"/>
<path d="M-654.053 708.377C-403.459 488.293 -160.271 482.857 -45.0099 494.073C118.156 509.941 238.668 493.648 499.638 536.043C852.086 593.295 1026.65 659.354 1224.34 568.92C1441.41 469.618 1559.33 329.989 1741.52 36.2912C1855.67 -147.714 2014.37 -430.053 2254.62 -792.249" stroke="#96989A" stroke-opacity="0.24" stroke-width="1.5" stroke-miterlimit="10"/>
<path d="M-643.86 766.899C-409.615 523.201 -167.268 500.028 -57.8895 502.586C108.601 506.48 234.77 488.575 504.598 525.077C859.125 573.077 1010.52 637.239 1204.6 556.325C1431.35 461.773 1558.91 318.592 1754.88 24.5853C1874.74 -155.224 2040.14 -431.876 2274.3 -789.783" stroke="#96989A" stroke-opacity="0.24" stroke-width="1.5" stroke-miterlimit="10"/>
<path d="M-633.627 825.406C-415.811 558.116 -168.596 545.878 -70.7591 511.106C89.2673 454.221 230.918 483.736 509.576 514.116C866.248 553.019 994.371 615.494 1184.82 543.727C1421.39 454.61 1558.25 306.891 1768.21 12.8516C1893.67 -162.864 2065.88 -433.719 2293.95 -787.314" stroke="#96989A" stroke-opacity="0.24" stroke-width="1.5" stroke-miterlimit="10"/>
<path d="M-623.474 883.926C-422.038 593.036 -175.663 556.745 -83.7094 519.63C77.4595 454.583 227.022 479.129 514.466 503.168C873.447 533.217 978.13 594.122 1165.05 531.129C1411.52 448.125 1557.42 294.967 1781.54 1.10162C1912.56 -170.67 2091.61 -435.587 2313.59 -784.925" stroke="#96989A" stroke-opacity="0.24" stroke-width="1.5" stroke-miterlimit="10"/>
<path d="M-613.282 942.448C-428.236 627.944 -184.004 566.856 -96.6217 528.149C66.493 455.904 223.216 474.742 519.407 492.247C880.725 513.561 961.773 573.043 1145.28 518.58C1401.71 442.472 1556.42 282.811 1794.88 -10.5746C1931.39 -178.534 2117.36 -437.39 2333.25 -782.431" stroke="#96989A" stroke-opacity="0.24" stroke-width="1.5" stroke-miterlimit="10"/>
<path d="M-603.09 1000.96C-434.433 662.858 -198.483 564.474 -109.526 536.665C65.7047 481.947 219.491 470.549 524.341 481.276C888.133 494.041 945.234 552.233 1125.51 505.963C1391.87 437.572 1555.27 270.279 1808.21 -22.3516C1950.21 -186.638 2143.11 -439.26 2352.89 -780.035" stroke="#96989A" stroke-opacity="0.24" stroke-width="1.5" stroke-miterlimit="10"/>
<path d="M-592.899 1059.48C-440.629 697.774 -207.639 580.071 -122.445 545.193C52.7148 473.49 215.816 466.566 529.26 470.316C895.632 474.675 928.442 531.723 1105.73 493.367C1381.99 433.606 1554.03 257.58 1821.53 -34.0575C1968.98 -194.818 2168.83 -441.083 2372.54 -777.572" stroke="#96989A" stroke-opacity="0.24" stroke-width="1.5" stroke-miterlimit="10"/>
<path d="M-582.706 1118C-446.818 732.688 -217.565 595.807 -135.357 553.712C38.5906 464.613 212.228 462.768 534.194 459.346C903.273 455.419 911.369 511.441 1085.96 480.76C1371.97 430.469 1552.67 244.547 1834.86 -45.8001C1987.78 -203.118 2194.56 -442.95 2392.18 -775.151" stroke="#96989A" stroke-opacity="0.24" stroke-width="1.5" stroke-miterlimit="10"/>
</g>
</svg>
